<svg xmlns="http://www.w3.org/2000/svg" viewBox="0 0 560 455" width="560" height="455" role="img" aria-label="Flat plate inverter battery illustration">
  <defs>
    <linearGradient id="bg" x1="0" y1="0" x2="0" y2="1">
      <stop offset="0" stop-color="#ffffff"/>
      <stop offset="1" stop-color="#f6f7f9"/>
    </linearGradient>
    <linearGradient id="body" x1="0" y1="0" x2="0" y2="1">
      <stop offset="0" stop-color="#3a3d42"/>
      <stop offset=".55" stop-color="#26282c"/>
      <stop offset="1" stop-color="#17191c"/>
    </linearGradient>
    <linearGradient id="cap" x1="0" y1="0" x2="0" y2="1">
      <stop offset="0" stop-color="#5a5f66"/>
      <stop offset="1" stop-color="#33363b"/>
    </linearGradient>
    <linearGradient id="label" x1="0" y1="0" x2="1" y2="0">
      <stop offset="0" stop-color="#fe5f1e"/>
      <stop offset="1" stop-color="#ff9a3c"/>
    </linearGradient>
    <radialGradient id="sheen" cx=".3" cy=".15" r=".8">
      <stop offset="0" stop-color="#ffffff" stop-opacity=".26"/>
      <stop offset="1" stop-color="#ffffff" stop-opacity="0"/>
    </radialGradient>
  </defs>

  <rect width="560" height="455" fill="url(#bg)"/>
  <ellipse cx="280" cy="352" rx="196" ry="17" fill="#14161a" opacity=".13"/>

  <g>
    <rect x="168" y="118" width="34" height="36" rx="5" fill="url(#cap)"/>
    <rect x="172" y="110" width="26" height="14" rx="5" fill="#b9bec6"/>
    <ellipse cx="185" cy="112" rx="13" ry="5" fill="#dfe3e8"/>
    <rect x="358" y="118" width="34" height="36" rx="5" fill="url(#cap)"/>
    <rect x="362" y="110" width="26" height="14" rx="5" fill="#b9bec6"/>
    <ellipse cx="375" cy="112" rx="13" ry="5" fill="#dfe3e8"/>
  </g>

  <rect x="70" y="148" width="420" height="196" rx="18" fill="url(#body)"/>
  <rect x="70" y="148" width="420" height="196" rx="18" fill="url(#sheen)"/>
  <rect x="86" y="162" width="388" height="168" rx="12" fill="none" stroke="#5f656d" stroke-width="2" opacity=".55"/>

  <rect x="70" y="200" width="420" height="46" fill="url(#label)" opacity=".95"/>
  <rect x="70" y="200" width="420" height="46" fill="url(#sheen)"/>

  <g fill="#ffffff" opacity=".92">
    <rect x="104" y="216" width="118" height="8" rx="4"/>
    <rect x="104" y="230" width="76" height="6" rx="3" opacity=".75"/>
    <rect x="356" y="214" width="98" height="20" rx="10" opacity=".9"/>
  </g>

  <g fill="#c9ced6">
    <rect x="104" y="272" width="16" height="52" rx="4"/>
    <rect x="132" y="272" width="16" height="52" rx="4"/>
    <rect x="160" y="272" width="16" height="52" rx="4"/>
    <rect x="188" y="272" width="16" height="52" rx="4"/>
    <rect x="216" y="272" width="16" height="52" rx="4"/>
    <rect x="244" y="272" width="16" height="52" rx="4"/>
  </g>
  <g fill="#8d939c">
    <rect x="272" y="272" width="16" height="52" rx="4"/>
    <rect x="300" y="272" width="16" height="52" rx="4"/>
    <rect x="328" y="272" width="16" height="52" rx="4"/>
    <rect x="356" y="272" width="16" height="52" rx="4"/>
    <rect x="384" y="272" width="16" height="52" rx="4"/>
    <rect x="412" y="272" width="16" height="52" rx="4"/>
  </g>
</svg>
